PathFileType	4	(X/Y/Z)	E:\Qualisys_Data\Carbon_Farble_Plate\Data\Amateur_Runner\S1\T3\S1T3V22_c3d.trc
DataRate	CameraRate	NumFrames	NumMarkers	Units	OrigDataRate	OrigDataStartFrame	OrigNumFrames
200.000000	200.000000	5	39	mm	200.000000	259	297
Frame#	Time	LSHO			RSHO			LICST			RICST			LASIS			LHEEL			RASIS			LTROC			RTROC			SACR			LTH1			LSK4			LTH2			LTH3			RHM5			LSK2			LTH4			RTH1			LTOE			RTH2			RTH3			RTH4			LLEP			RLEP			LSK1			LSK3			RSK1			LHM5			RSK2			LFT1			RSK3			RSK4			LLME			RLME			RTOE			RHEEL			RFT1			RFT2			LFT2			
		X1	Y1	Z1	X2	Y2	Z2	X3	Y3	Z3	X4	Y4	Z4	X5	Y5	Z5	X6	Y6	Z6	X7	Y7	Z7	X8	Y8	Z8	X9	Y9	Z9	X10	Y10	Z10	X11	Y11	Z11	X12	Y12	Z12	X13	Y13	Z13	X14	Y14	Z14	X15	Y15	Z15	X16	Y16	Z16	X17	Y17	Z17	X18	Y18	Z18	X19	Y19	Z19	X20	Y20	Z20	X21	Y21	Z21	X22	Y22	Z22	X23	Y23	Z23	X24	Y24	Z24	X25	Y25	Z25	X26	Y26	Z26	X27	Y27	Z27	X28	Y28	Z28	X29	Y29	Z29	X30	Y30	Z30	X31	Y31	Z31	X32	Y32	Z32	X33	Y33	Z33	X34	Y34	Z34	X35	Y35	Z35	X36	Y36	Z36	X37	Y37	Z37	X38	Y38	Z38	X39	Y39	Z39	

260	1.295	2254.43310546875	1509.551513671875	-568.501708984375	2185.023193359375	1509.74267578125	-247.3514709472656	2205.1083984375	1037.084106445312	-548.751220703125	2222.59765625	1060.843505859375	-248.7724151611328	2245.874755859375	995.79052734375	-527.6905517578125	1711.379150390625	190.8765258789062	-426.7673950195312	2259.20263671875	1013.689453125	-262.5119018554688	2120.39892578125	929.1887817382812	-557.6695556640625	2170.031982421875	923.0308837890624	-218.6433868408203	2096.19140625	1065.45703125	-388.5383605957031	2197.629150390625	750.7133178710938	-535.141845703125	1822.172119140625	327.2829895019531	-462.3477172851562	2119.4375	769.6015625	-561.7703857421875	2162.671875	654.3709106445312	-510.1124572753906	2295.6591796875	189.68603515625	-234.3981018066406	1880.676147460938	401.9464111328125	-505.523193359375	2084.322998046875	678.8111572265625	-533.2802734375	2342.918701171875	879.7720947265625	-252.3495635986328	1913.455444335938	55.05086135864258	-443.7069702148438	2288.345947265625	831.1553955078125	-217.3643035888672	2410.58642578125	803.7533569335938	-249.9817657470703	2351.078369140625	753.5726318359375	-225.0888214111328	2058.912109375	529.1483154296875	-494.6208801269531	2458.234619140625	626.9534912109375	-259.715087890625	1945.988403320312	348.0191650390625	-497.5030212402344	1876.834228515625	274.16650390625	-489.7023010253906	2361.779541015625	470.0501708984375	-244.5041046142578	1839.7626953125	69.08317565917969	-499.9918212890625	2297.1796875	516.9057006835938	-262.9066162109375	1707.166137695312	162.4748077392578	-396.0308837890625	2305.89501953125	386.552978515625	-256.4961853027344	2243.01318359375	432.97705078125	-283.3553771972656	1780.519897460938	197.4699249267578	-477.1658935546875	2203.605224609375	300.8720092773438	-258.5646057128906	2353.373779296875	175.9512481689453	-302.8595581054688	2128.62744140625	289.0222473144531	-305.6963806152344	2126.944091796875	258.3651733398438	-334.5787048339844	2117.995849609375	265.5193481445312	-284.602783203125	1697.924926757812	161.4233551025391	-446.7537231445312
261	1.3	2275.6943359375	1514.419067382812	-566.5029296875	2203.49755859375	1513.068359375	-246.7835540771484	2226.96484375	1040.114013671875	-548.3540649414062	2243.04443359375	1064.591796875	-249.1513671875	2274.8671875	998.5925903320312	-528.1035766601562	1724.593017578125	203.5299987792969	-426.1658630371094	2280.56494140625	1017.756652832031	-262.1799621582031	2142.283447265625	933.1726684570312	-557.3978881835938	2192.155517578125	927.4632568359376	-218.302001953125	2118.486328125	1069.252685546875	-388.8115539550781	2215.7705078125	753.7467651367188	-535.3275146484375	1833.831665039062	334.0685729980469	-462.3260192871094	2137.467529296875	774.2734985351562	-561.7241821289062	2178.779541015625	658.056640625	-510.3630981445312	2337.9365234375	183.9042358398438	-234.2669830322266	1891.896728515625	409.1453552246094	-505.6063232421875	2100.575927734375	684.2748413085938	-533.9422607421875	2364.98291015625	884.0941162109375	-252.9658813476562	1917.124389648438	53.61646270751953	-444.4981079101562	2310.932373046875	835.6530151367188	-217.9586486816406	2433.0849609375	808.0757446289062	-250.6342468261719	2373.4736328125	757.9341430664062	-225.9579772949219	2072.26171875	535.0719604492188	-495.2671203613281	2480.3349609375	630.935791015625	-260.056640625	1957.80712890625	355.2506713867188	-498.2058715820312	1887.968383789062	281.8311462402344	-491.6640930175781	2391.003173828125	467.8960571289062	-244.1432952880859	1843.6962890625	72.65994262695312	-499.9825134277344	2324.08642578125	512.0936889648438	-261.2040710449219	1719.50830078125	175.5058288574219	-395.5093383789062	2339.018798828125	382.4957885742188	-256.1285705566406	2274.394287109375	425.7261352539062	-281.7073669433594	1791.749389648438	205.6591644287109	-478.0435180664062	2241.047607421875	291.2282409667969	-256.9494934082031	2396.39453125	173.6269073486328	-302.8253173828125	2166.614990234375	275.73828125	-304.3143920898438	2166.3125	245.2784271240234	-333.4659729003906	2157.3251953125	251.6453094482422	-282.8500366210938	1708.839599609375	174.4839935302734	-445.6851806640625
262	1.305	2296.668701171875	1518.882934570312	-565.1865844726562	2221.93603515625	1516.4130859375	-246.43603515625	2249.99755859375	1043.131103515625	-547.9143676757812	2264.3828125	1068.137329101562	-249.1952056884766	2297.327880859375	1001.77392578125	-527.5029907226562	1738.894897460938	216.2271728515625	-425.8986511230469	2302.263427734375	1021.428833007812	-261.9033508300781	2163.89990234375	937.1797485351562	-557.2732543945312	2214.025634765625	931.5396118164062	-217.9706573486328	2141.15380859375	1072.703125	-388.9992370605469	2233.47900390625	755.9421997070312	-534.143798828125	1846.494506835938	341.232666015625	-462.6261901855469	2156.029052734375	778.7335815429688	-561.4732055664062	2194.969482421875	661.583740234375	-511.2613220214844	2380.69921875	179.4942474365234	-233.1547393798828	1904.98388671875	416.2982177734375	-505.6587829589844	2117.533447265625	689.1641235351562	-534.3057861328125	2387.169921875	888.2045288085938	-253.4521179199219	1921.366943359375	52.41170120239258	-444.900146484375	2332.652587890625	839.6766357421875	-218.4072265625	2455.196533203125	812.345703125	-251.0457153320312	2395.55029296875	761.8279418945312	-226.6549224853516	2085.837158203125	541.054931640625	-496.5557250976562	2502.178466796875	634.8568725585938	-260.6400756835938	1969.81884765625	362.4877014160156	-499.7490844726562	1899.88916015625	288.7393188476562	-492.7313842773438	2419.984375	466.5018005371094	-243.2665405273438	1848.655151367188	76.53986358642578	-499.1803283691406	2350.39599609375	507.008056640625	-259.6288757324219	1732.979614257812	189.4714202880859	-394.4891052246094	2371.6259765625	378.5448913574219	-255.0369110107422	2305.3203125	418.5038757324219	-279.4300537109375	1804.152099609375	213.8497772216797	-479.3210754394531	2278.98486328125	281.7123413085938	-256.3099670410156	2439.49169921875	172.2372894287109	-302.0330505371094	2204.925048828125	262.8343505859375	-302.3872985839844	2206.41552734375	232.5004425048828	-332.3777465820312	2196.6982421875	238.3601837158203	-280.5775451660156	1721.057006835938	188.1202697753906	-444.4201965332031
263	1.31	2318.22021484375	1522.896484375	-563.4658813476562	2240.96533203125	1519.180908203125	-245.7772521972656	2272.5810546875	1045.873046875	-547.6613159179688	2285.3955078125	1071.45556640625	-249.3227691650391	2319.760009765625	1004.227416992188	-527.03125	1754.377685546875	230.2273406982422	-426.0538635253906	2323.942626953125	1025.018310546875	-261.1030578613281	2185.474853515625	941.0814208984376	-557.3388061523438	2235.300048828125	935.110107421875	-217.7010955810547	2163.476318359375	1076.475830078125	-389.2868957519531	2251.511474609375	759.2308349609375	-534.7338256835938	1859.48095703125	348.6598205566406	-462.8087158203125	2174.38525390625	783.1324462890625	-561.947021484375	2211.6884765625	665.2220458984375	-512.8729858398438	2423.5048828125	175.2050018310547	-232.7832489013672	1917.836303710938	423.7615661621094	-505.6778259277344	2134.422607421875	693.9705200195312	-534.6303100585938	2408.8779296875	891.604248046875	-253.4717864990234	1926.5244140625	50.82597351074219	-446.8799743652344	2354.09375	842.6065673828125	-219.2599487304688	2476.84619140625	815.5928955078125	-251.36328125	2416.606201171875	764.67578125	-228.35498046875	2100.384765625	546.7235107421875	-497.5160522460938	2523.40380859375	637.3501586914062	-261.4507751464844	1982.488037109375	369.0157775878906	-500.9319458007812	1912.565795898438	296.1204223632812	-493.728759765625	2448.288330078125	464.3145141601562	-242.3651885986328	1853.838012695312	81.37127685546875	-497.8957214355469	2376.990478515625	501.6445922851562	-257.8033447265625	1747.775146484375	204.5263671875	-393.9988098144531	2405.149169921875	374.2589111328125	-254.4763031005859	2336.445068359375	411.0086975097656	-278.3955078125	1815.913452148438	222.3822937011719	-481.0068054199219	2316.60107421875	272.64306640625	-255.0910339355469	2482.42431640625	171.1864318847656	-301.45263671875	2243.318603515625	249.9556732177734	-301.2828369140625	2246.355712890625	219.9412231445312	-330.7809753417969	2236.96630859375	224.6672821044922	-280.2281799316406	1734.336669921875	203.1061553955078	-443.6137390136719
264	1.315	2339.554443359375	1526.713256835938	-561.6079711914062	2260.194091796875	1521.684448242188	-245.5430297851562	2295.216796875	1048.619262695312	-546.95849609375	2306.96142578125	1074.497802734375	-248.9146728515625	2341.681640625	1006.393127441406	-525.9736938476562	1774.111572265625	244.6135559082031	-426.4983215332031	2345.475830078125	1027.658447265625	-260.7757568359375	2207.059326171875	944.548095703125	-557.3367309570312	2256.759765625	938.0855712890624	-217.1165771484375	2185.376708984375	1079.59716796875	-389.0185241699219	2267.26318359375	762.692138671875	-535.4209594726562	1872.883178710938	355.9427185058594	-463.1889038085938	2192.9892578125	787.3406372070312	-562.1430053710938	2228.68408203125	668.4551391601562	-514.8106689453125	2466.10888671875	171.5178070068359	-231.7263031005859	1931.54052734375	430.4635925292969	-505.7856140136719	2151.7099609375	699.7792358398438	-535.6585693359375	2430.061767578125	894.466552734375	-253.2021179199219	1931.732666015625	50.31056213378906	-448.823974609375	2375.19873046875	845.4320068359375	-220.4812774658203	2497.640380859375	818.0304565429688	-251.8921966552734	2437.45361328125	767.526123046875	-230.2131652832031	2115.685302734375	551.7118530273438	-498.5493774414062	2543.781982421875	639.748291015625	-262.1051025390625	1996.180419921875	375.7809448242188	-501.9685668945312	1925.774780273438	303.0718078613281	-494.1684265136719	2476.6640625	462.1470336914062	-241.5734558105469	1859.514038085938	86.53453826904297	-497.353515625	2403.181884765625	495.7694396972656	-255.6459655761719	1764.1982421875	219.9664764404297	-393.6668090820312	2437.970703125	369.9966735839844	-253.4102478027344	2367.031494140625	403.3135681152344	-276.9728698730469	1828.429809570312	231.1315612792969	-481.846435546875	2353.87255859375	264.8367919921875	-253.4840698242188	2525.326171875	170.7592926025391	-300.76025390625	2282.480224609375	237.5492401123047	-299.8468933105469	2286.479736328125	207.2006530761719	-328.8616333007812	2276.9443359375	211.8968658447266	-278.6835327148438	1749.4267578125	218.6115112304688	-442.8347778320312
